<svg xmlns="http://www.w3.org/2000/svg" width="512" height="512" viewBox="0 0 512 512">
  <rect width="512" height="512" fill="#b25a7c" rx="90" ry="90"/>
  <path fill="#fff" d="M62.657 310.512c9.087 31.148 32.257 50.994 64.98 50.994 19.466 0 36.235-7.577 48.808-20.112-25.734 0-51.885-11.33-62.73-30.882z"/>
  <path fill="#fff" d="M247.958 274.674c.085-9.62 0-19.23 0-28.555v-90.925h-51.03v83.338c0 25.924.294 48.952 0 53.9-.893 22.145-8.566 36.997-20.246 48.952h2.697c25.449 0 49.416-14.272 61.096-36.417a64.99 64.991 0 0 0 7.483-30.302z"/>
  <path fill="#fff" d="M380.073 150.493c-19.618 0-36.198 5.736-48.875 18.271 33.9 0 59.985 21.271 66.822 53.064h51.325a129.361 129.365 0 0 0-.447-4.32c-5.127-40.207-30.481-67.015-68.825-67.015z"/>
  <path fill="#fff" d="M331.198 168.764s-24.955.855-41.971 11.072c-19.438 11.68-25.221 24.766-25.221 31.87 0 19.941 13.579 36.132 31.155 46.17 17.587 10.046 39.104 14.433 61.514 14.832 12.42.219 34.83 4.92 45.476 12.934.883.665 1.69 1.358 2.402 2.08 2.127 2.136 3.418 4.482 3.513 7.008a11.841 11.842 0 0 1-1.937 6.97c-5.82 9.154-24.015 14.187-44.44 12.972a183.44 183.44 0 0 1-9.192-.77c-11.917-1.348-22.287-4.092-29.02-9.809a23.815 23.816 0 0 1-4.339-4.872 21.584 21.585 0 0 1-2.782-6.134 26.085 26.086 0 0 1-.74-3.59 31.431 31.432 0 0 1-.286-3.95h-51.324c0 22.79 13.702 41.82 30.842 53.501 17.15 11.68 38.6 17.824 61.827 17.824a157.792 157.797 0 0 0 16.665-.892 139.019 139.023 0 0 0 15.763-2.669 121.432 121.436 0 0 0 14.68-4.415 105.707 105.71 0 0 0 13.4-6.144c16.93-9.335 32.162-26.352 32.162-48.022 0-19.99-13.58-35.193-31.156-45.24-6.6-3.76-14.11-5.317-22.059-6.049a165.53 165.536 0 0 0-8.071-.522c-10.892-.475-22.296-.2-32.913-2.991-19.276-5.052-38.8-13.694-39.825-28.223-.95-13.465 4.226-32.96 15.877-42.941z"/>
</svg>
