<svg xmlns="http://www.w3.org/2000/svg" width="192" height="192" viewBox="0 0 192 192" fill="#b25a7c">
  <path d="M0 123.066c4.512 15.466 16.017 25.32 32.264 25.32 9.665 0 17.991-3.763 24.234-9.987-12.777 0-25.762-5.626-31.146-15.333z"/>
  <path d="M92.006 105.272c.043-4.777 0-9.548 0-14.179V45.947H66.668v41.38c0 12.872.146 24.305 0 26.761-.443 10.996-4.253 18.37-10.052 24.307h1.339c12.635 0 24.536-7.086 30.336-18.081a32.268 32.268 0 0 0 3.715-15.047z"/>
  <path d="M157.604 43.614c-9.741 0-17.973 2.847-24.267 9.071 16.832 0 29.784 10.562 33.178 26.348H192a64.231 64.233 0 0 0-.222-2.145c-2.545-19.963-15.134-33.274-34.173-33.274Z"/>
  <path d="M133.337 52.685s-12.391.425-20.841 5.499c-9.65 5.8-12.522 12.296-12.522 15.823 0 9.901 6.742 17.94 15.469 22.923 8.732 4.99 19.416 7.168 30.544 7.366 6.167.108 17.293 2.442 22.578 6.422.44.33.839.674 1.193 1.032 1.057 1.062 1.698 2.226 1.745 3.48a5.879 5.879 0 0 1-.96 3.462c-2.892 4.544-11.926 7.043-22.068 6.44a91.044 91.044 0 0 1-4.563-.383c-5.918-.669-11.066-2.032-14.408-4.87a11.825 11.825 0 0 1-2.156-2.419 10.716 10.718 0 0 1-1.38-3.046 12.952 12.952 0 0 1-.369-1.782 15.607 15.607 0 0 1-.142-1.961H99.975c0 11.316 6.803 20.765 15.314 26.564 8.516 5.799 19.166 8.85 30.7 8.85a78.346 78.349 0 0 0 8.273-.444 69.027 69.027 0 0 0 7.827-1.325 60.294 60.296 0 0 0 7.29-2.19 52.487 52.487 0 0 0 6.653-3.052C184.437 134.44 192 125.99 192 115.231c0-9.926-6.742-17.474-15.469-22.463-3.277-1.867-7.005-2.64-10.953-3.003a82.19 82.191 0 0 0-4.007-.26c-5.41-.236-11.071-.1-16.343-1.486-9.57-2.507-19.265-6.798-19.773-14.012-.472-6.686 2.097-16.365 7.883-21.322z"/>
</svg>
