<svg xmlns="http://www.w3.org/2000/svg" width="192" height="192" viewBox="0 0 192 192">
  <rect width="192" height="192" fill="#b25a7c" rx="60" ry="60"/>
  <path fill="#fff" d="M25.016 116.013c3.336 11.436 11.843 18.722 23.857 18.722 7.146 0 13.303-2.782 17.919-7.384-9.448 0-19.049-4.16-23.03-11.338z"/>
  <path fill="#fff" d="M93.047 102.856c.032-3.532 0-7.06 0-10.484V58.99H74.312v30.597c0 9.518.108 17.972 0 19.788-.328 8.13-3.145 13.583-7.433 17.973h.99c9.343 0 18.143-5.24 22.431-13.37a23.86 23.86 0 0 0 2.747-11.126z"/>
  <path fill="#fff" d="M141.552 57.265c-7.203 0-13.29 2.105-17.944 6.707 12.446 0 22.023 7.81 24.533 19.482h18.843a47.494 47.495 0 0 0-.164-1.586c-1.882-14.761-11.19-24.603-25.268-24.603Z"/>
  <path fill="#fff" d="M123.608 63.972s-9.162.314-15.41 4.066c-7.136 4.288-9.259 9.092-9.259 11.7 0 7.321 4.985 13.265 11.438 16.95 6.457 3.69 14.357 5.3 22.585 5.446 4.56.08 12.787 1.806 16.695 4.749.325.244.62.498.882.763.781.785 1.255 1.646 1.29 2.573a4.347 4.347 0 0 1-.71 2.56c-2.138 3.36-8.818 5.208-16.317 4.762a67.32 67.32 0 0 1-3.374-.283c-4.376-.495-8.183-1.503-10.654-3.601a8.744 8.744 0 0 1-1.594-1.789 7.924 7.925 0 0 1-1.021-2.252 9.577 9.577 0 0 1-.272-1.318 11.54 11.54 0 0 1-.105-1.45H98.94c0 8.367 5.03 15.354 11.323 19.642 6.297 4.288 14.172 6.544 22.7 6.544a57.931 57.933 0 0 0 6.118-.328 51.04 51.04 0 0 0 5.787-.98 44.583 44.584 0 0 0 5.39-1.62 38.81 38.81 0 0 0 4.92-2.256c6.215-3.427 11.807-9.675 11.807-17.63 0-7.34-4.985-12.921-11.438-16.61-2.423-1.38-5.18-1.952-8.099-2.22a60.773 60.774 0 0 0-2.963-.192c-4-.175-8.186-.074-12.084-1.099-7.077-1.854-14.245-5.027-14.621-10.361-.349-4.944 1.551-12.101 5.829-15.766z"/>
</svg>
