<svg xmlns="http://www.w3.org/2000/svg" width="512" height="512" viewBox="0 0 512 512" fill="#b25a7c">
  <path d="M.001 328.178c12.032 41.242 42.71 67.519 86.038 67.519 25.774 0 47.977-10.032 64.625-26.63-34.074 0-68.7-15.001-83.059-40.89z"/>
  <path d="M245.352 280.726c.112-12.738 0-25.462 0-37.809v-120.39h-67.567V232.87c0 34.325.389 64.816 0 71.367-1.183 29.322-11.342 48.987-26.808 64.816h3.571c33.697 0 65.43-18.897 80.896-48.218a86.051 86.052 0 0 0 9.908-40.122z"/>
  <path d="M420.28 116.302c-25.975 0-47.928 7.595-64.713 24.192 44.886 0 79.424 28.164 88.476 70.26h67.958a171.282 171.288 0 0 0-.592-5.72c-6.788-53.236-40.359-88.732-91.129-88.732z"/>
  <path d="M355.567 140.494s-33.042 1.132-55.573 14.66c-25.737 15.465-33.394 32.792-33.394 42.198 0 26.403 17.98 47.841 41.251 61.132 23.287 13.302 51.777 19.11 81.449 19.639 16.445.29 46.117 6.514 60.213 17.125 1.17.88 2.238 1.798 3.18 2.754 2.817 2.828 4.526 5.935 4.652 9.28a15.678 15.68 0 0 1-2.565 9.228c-7.706 12.12-31.797 18.784-58.841 17.176a242.886 242.886 0 0 1-12.171-1.02c-15.779-1.785-29.51-5.418-38.424-12.988a31.533 31.534 0 0 1-5.746-6.45 28.579 28.58 0 0 1-3.683-8.122 34.538 34.54 0 0 1-.98-4.754 41.617 41.618 0 0 1-.379-5.23H266.6c0 30.176 18.142 55.373 40.837 70.84 22.708 15.464 51.109 23.6 81.863 23.6a208.927 208.933 0 0 0 22.065-1.182 184.07 184.075 0 0 0 20.872-3.534A160.784 160.79 0 0 0 451.674 379a139.963 139.967 0 0 0 17.742-8.135c22.417-12.36 42.585-34.891 42.585-63.584 0-26.468-17.98-46.598-41.253-59.9-8.738-4.979-18.682-7.04-29.207-8.01a219.172 219.18 0 0 0-10.687-.69c-14.421-.63-29.521-.266-43.579-3.961-25.522-6.69-51.373-18.132-52.73-37.37-1.258-17.828 5.595-43.64 21.022-56.856z"/>
</svg>
